<?xml version="1.0" standalone="no"?><!DOCTYPE svg PUBLIC "-//W3C//DTD SVG 1.1//EN" "http://www.w3.org/Graphics/SVG/1.1/DTD/svg11.dtd"><svg t="1601446212003" class="icon" viewBox="0 0 1024 1024" version="1.1" xmlns="http://www.w3.org/2000/svg" p-id="3916" width="13" height="13" xmlns:xlink="http://www.w3.org/1999/xlink"><defs><style type="text/css"></style></defs><path d="M222.3 892.9h-30.9c-0.8-2.1-1.5-4.1-2.2-6.3-6.8-21.1-18.9-47.3-22-68.4-4.6-31.2 24.8-33 43.6-46.5 29-20.9 51.9-32.5 83.4-51.4 9.4-5.6 37.5-19.8 40.7-26.3 6.4-12.9-10.9-31.2-15.6-41.3-7.1-16.1-10.9-29.7-11.9-45.5-26.2-4.2-46.2-19.9-58.5-37.6-20-29.4-33.8-83.6-16.7-124.9 1.4-3.3 8.1-9.7 9-14.7 1.9-9.8-3.3-22.9-3.8-33.3-1.9-53.7 9-100 45.3-116.2 14.7-58.4 67.1-77.9 116.6-106.9 18.4-10.9 38.8-17.8 60-25.6 75.3-27.8 191.3-22.6 253.8 24.9 26.5 20.1 69.1 62.6 84.3 93.3 40.1 81.1 37.1 216.6 9.1 315.3-3.8 13.4-9.2 32.8-16.9 48.7-5.3 11.1-21.9 33.3-19.8 43.2 2 10 37.7 37.1 45.4 44.3 13.8 13.4 40 30.9 42 47.6 2.2 17.7-7.9 42.4-13 59.5-6.9 22.9-13.8 45.7-20.8 67.6h-601l-0.1 0.5z" p-id="3917"></path><path d="M574.7 780.5c-17.3-9.5-43.2-19.7-65.5-24-27.6-5.2-24.7 37.7-23.8 63.3 1 20.4 11.5 41.8 16.2 55.4 2.4 6.3 2.8 13 8.1 14.3 9.5 2.2 40.9-10.3 50-15.2 19-10.4 33.8-26.8 50-37.7 0.5-5.4 0.5-10.8 1-16.1-10.8-5.4-22.7-8.4-34.8-8.8 10-4.8 23.8-4.8 32.8-10.5l0.5-6.1c-15.7-1-21.9-8.1-32.4-13.8l-2.1-0.8z" fill="#EF3D3A" p-id="3918"></path><path d="M811.3 873.7c6.1-19.6 11.4-38.8 14.8-55.6 1.9-9.1 6.8-29.1 5.6-37.3-1.9-14.6-21.7-25.4-31.9-34.5-18.5-16.7-30.2-30.9-49.5-46.6-7.9 11.9-24.7 19.5-31.2 29 45.9-21.9 54.2 83.3 36.2 117.1 2.9 10.5 12.4 14.3 16.3 23.4l-2.7 5.3h40.9c0.4 0 1 0 1.4 0.4l0.1-1.2z" fill="#335061" p-id="3919"></path><path d="M600.7 873.3c-1.6-2.3-3.2-4.3-4.8-6.6l-9.6 6.2h14.3v0.4z" fill="#81B0C4" p-id="3920"></path><path d="M688.7 873.3c0.3-6.6 0.6-12.8 0.9-19-16.8 0.9-26.2-15.2-37.9-16.7-10.3-1.4-19 11.5-32.4 6.2-3 3.3-5.8 7.2-9 10 4.9 5.7 9.4 11.9 13.5 18.5h25.9c0.4-5.2 4.3-9 9.5-9 5.3 0 9 3.8 9 8.6h20.9l-0.4 1.4z" fill="#FFFFFF" p-id="3921"></path><path d="M755.8 873.3c-10-15.2-30.1-28.5-53.3-17.6l-1 17.2h54.3v0.4z" fill="#81B0C4" p-id="3922"></path><path d="M485.7 873.3l-3.3-10.9c-7.1-22.9-11.4-40-12.9-53.3-29-13.8-59.5-27.6-84.2-45.3-4.8-3.3-35.2-42.8-39-41.4-55.2 21.5-106.6 59-152.8 94.7 8.1 17.7 15.2 36.2 21.9 55.2h269.9l0.4 1z" fill="#335061" p-id="3923"></path><path d="M748.1 806.2c-0.9-16.3-5.2-49.5-15.2-55.2-20.9-12.4-58.6 24.7-74.3 29.9 1.4 4.8 4.3 8.6 4.8 15.2 9-2.3 20.5-0.9 28.5 2.9-9.5 0.9-20 0.9-26.2 5.2-2.3 6.2 0.5 15.2-0.9 24.2 21.9 6.3 47.6 9.6 75.7 10.5 5.2-7.2 7.1-20.5 6.7-34.3l0.9 1.6zM618.6 794.8c-1.4 11.9 1.4 16.2 3.8 29.9 40 12.4 32.8-55.2-4.3-30.4l0.5 0.5z" fill="#EF3D3A" p-id="3924"></path><path d="M409.2 750.1c-14.3 14.5 40.3 34.3 57.6 35.4 0-9.2 5.2-17.9 4.3-24.5-20.6-3.7-47.7-1.3-61.7-11-0.1 0-0.2 0.1-0.2 0.1z" p-id="3925"></path><path d="M585.8 756.9c0 1.4-1.9 0.9-2.2 2 18.4 14.3 32.2 17.3 57.2 16.2 11.2-8.3 21.3-17.9 33.1-25.6-27.1 2.3-61.3 19.3-88.1 7.3v0.1zM694.3 194.2c-50.9-28.8-138.1-50.5-192.8-23.2-43.8 22-103.8 58.4-123.7 104.5 19 44.5-5.3 85.3-7.2 130.4C370 430 382 451 383 477.1c-6.3 10.7-26.2 12.1-40 11.3-4.6-23.1-12.7-49.2-36.7-51.8-33.8-3.6-58.6 24.3-60 53.4-1.9 34.2 26.5 90.9 66.2 87.1 15.5-1.5 19.3-17.2 36.2-17.2 9 18.1-14.1 23.8-16.6 36.7-0.5 3.3 1.9 16.2 3.3 22.4 7.4 30 23.6 68.5 39.5 91.4 20.2 28.6 59.8 33.4 102.5 36.2 7.6-16.7 35.7-15.2 54.1-11-21.9-8.6-42.4-30-59.5-48.5-19.5-21.5-39-44.8-40-72.4 36.7 50.9 66.7 95.2 133.3 117.6 50.5 16.7 109.5-8.1 148-35.2 16.2-11.4 25.7-29.5 37.1-45.7 42.8-61.4 62.8-149.5 58.6-234.7-1.9-35.3-1.9-70.5-13.8-93.8-12.3-24.8-53.8-46.7-78.6-24.8-4.8-24.2 20-39 49-30.4-20.9-27.1-42.4-59-71.9-75.7l0.6 2.2z" fill="#F0D6B7" p-id="3926"></path><path d="M562.2 603.9c19.5 49 86.5 43.3 143 42-2.7 6.2-8.1 13.8-14.8 16.3-18.1 7.4-68.1 12.9-93.2-0.4-16.1-8.6-26.2-27.7-35-38.9-4.3-5.5-25.2-19.3-0.4-19.3l0.4 0.3zM567.4 576.3c28.3 14.8 80 16.4 118.4 15.2 2.1 8.5 2.1 18.9 2.2 29-49.2 2.5-107.5-9.6-120.4-44.3l-0.2 0.1zM779.3 557.7c-15 28.6-36.3 60.2-80.6 61.2-0.7-9-1.4-23.3 0-28.7 33.8-3.3 54.8-20.5 80.7-32.3l-0.1-0.2zM758.7 536.5c-32.4 20.9-68.4 43.6-121.4 38.4-11.2-9.8-15.4-31.8-4.5-46.3 5.8 9.9 1.9 28.1 18.1 30.8 30 5.3 64.7-18.3 86.6-26.7 13.3-22.6-1.4-30.9-13.3-45.4-24.8-29.5-58.1-66.7-57.2-111.4 10-7.1 11 10.9 12.4 14.3 12.8 30.5 45.2 69.1 69 95.2 5.7 6.7 15.2 12.4 16.2 16.7 2.9 12.3-8.1 27.1-6.6 35.2l0.7-0.8zM332.1 515.1c-10-5.8-12.5-31.4-24.4-32.1-17-1-13.9 33.3-13.8 53.3-11.7-10.4-13.8-43.3-5.2-60-9.8-4.8-14.1 5.2-19.6 9 7-50.5 74.3-23.3 63.1 30.5l-0.1-0.7z" p-id="3927"></path><path d="M280.7 321.4c-21.7 24-17.1 69-14.6 101.2 39.5-24.9 92 1.9 91.5 44.3 18.9-0.5 7.1-23.6 3.6-38.6-11.2-48.5 18.8-101.2 1.3-145.7-33.8 2.6-61.5 16.5-81.8 38.5 0.1 0 0 0.3 0 0.3z" fill="#6D6B6D" p-id="3928"></path><path d="M570.2 356.7c9.7 17.8 12.8 36.4 26.7 49.8 6.2 6.1 18.2 13.5 12.3 30.2-1.4 3.8-11.6 12.4-17.5 14.3-21.4 6.2-71.5 1-54.6-25.7 17.9 0.5 41.7 11.4 55-1.4-10-16.7-28.1-48.6-21.4-67.6l-0.5 0.4zM766.9 356.3h2.2c10.5 21.2 19 43.6 31.9 62.4-8.6 20-65.2 37.8-64.2 1.8 12.3-5.4 33.3-1.1 44.3-7.9-6.1-17.6-15.2-31.9-13.8-56.2l-0.4-0.1zM547 305c-45.1-10.5-67.6 18.8-81.3 49.3-12.2-3-7.3-19.5-4.3-28 8.1-22.2 40.6-51.8 67.3-47.8 11.4 1.8 27 12.2 18.3 26.5 0-0.1 0 0 0 0z" p-id="3929"></path><path d="M437.2 181.7c-49.5 14-113 50-133.3 94.4 15.7-2.2 26.7-10.2 42.2-11.1 5.9-0.5 13.6 2.3 20.3 0.5 13.5-3.3 24.8-33.8 35-44.7 9.9-11 21.7-15.8 29.9-25.7 5.3-2.9 12.9-2.3 13.3-10.5-2.3-2.4-4.8-4.3-7.4-3.3v0.4z" fill="#6D6B6D" p-id="3930"></path></svg>