<?xml version="1.0" standalone="no"?><!DOCTYPE svg PUBLIC "-//W3C//DTD SVG 1.1//EN" "http://www.w3.org/Graphics/SVG/1.1/DTD/svg11.dtd"><svg t="1601273589248" class="icon" viewBox="0 0 1027 1024" version="1.1" xmlns="http://www.w3.org/2000/svg" p-id="3350" xmlns:xlink="http://www.w3.org/1999/xlink" width="16.046875" height="16"><defs><style type="text/css"></style></defs><path d="M902.956625 775.983567a42.363284 42.363284 0 0 0-26.329958-9.252259c-12.606019 0-24.31476 5.604309-32.051943 15.268433-82.225957 100.804022-203.608533 158.597544-333.02248 158.597544-236.08705 0-428.148646-192.076305-428.148646-428.133937C83.403598 275.876176 275.479903 83.402715 511.552244 83.402715c84.035222 0 163.760569 23.491029 232.424391 68.222538-21.299318 1.559204-38.759463 19.960756-38.759463 41.583682 0 22.608461 19.092897 41.716067 41.701358 41.716067h109.114874c22.608461 0 41.701357-19.107606 41.701358-41.716067V89.492437c0-22.593751-19.092897-41.701357-41.701358-41.701357s-41.701357 19.107606-41.701357 41.701357v10.017151C726.545909 34.331911 622.29987 0 511.552244 0c-68.825627 0-135.694893 13.576844-198.724988 40.362795a511.330719 511.330719 0 0 0-162.642649 109.953315 512.272125 512.272125 0 0 0-109.835639 162.907419A507.594513 507.594513 0 0 0 0.000883 512.463348c0 282.054155 229.482497 511.536652 511.551361 511.536652 155.06727 0 299.896746-69.031559 397.361718-189.413891 7.178223-8.36969 10.590821-18.975221 9.590576-29.87494a41.804324 41.804324 0 0 0-15.547913-28.727602zM985.903346 528.90854a41.745486 41.745486 0 0 0 41.701358-41.716067 41.745486 41.745486 0 0 0-41.701358-41.686648 41.745486 41.745486 0 0 0-41.701357 41.686648 41.745486 41.745486 0 0 0 41.701357 41.716067zM999.553738 561.107577a41.657229 41.657229 0 0 0-41.701358 0 41.774905 41.774905 0 0 0-20.843324 36.111758c0 14.841859 7.987244 28.683473 20.858034 36.111757a41.774905 41.774905 0 0 0 41.701357 0c12.85608-7.428284 20.843324-21.255189 20.843324-36.111757s-8.001954-28.698183-20.858033-36.111758z" fill="#10A0F7" p-id="3351"></path><path d="M943.525353 661.029031c-22.990907 0-41.701357 18.695741-41.701358 41.701358s18.71045 41.716067 41.701358 41.716067 41.701357-18.71045 41.701357-41.716067-18.71045-41.701357-41.701357-41.701358z" fill="#10A0F7" p-id="3352"></path></svg>